<svg version="1.1" xmlns="http://www.w3.org/2000/svg" xmlns:xlink="http://www.w3.org/1999/xlink">
<symbol id="lnr-cart" viewBox="0 0 1024 1024">
    <title>cart</title>
    <path class="path1" d="M409.6 1024c-56.464 0-102.4-45.936-102.4-102.4s45.936-102.4 102.4-102.4 102.4 45.936 102.4 102.4-45.936 102.4-102.4 102.4zM409.6 870.4c-28.232 0-51.2 22.968-51.2 51.2s22.968 51.2 51.2 51.2 51.2-22.968 51.2-51.2-22.968-51.2-51.2-51.2z"></path><path class="path2" d="M768 1024c-56.464 0-102.4-45.936-102.4-102.4s45.936-102.4 102.4-102.4 102.4 45.936 102.4 102.4-45.936 102.4-102.4 102.4zM768 870.4c-28.232 0-51.2 22.968-51.2 51.2s22.968 51.2 51.2 51.2 51.2-22.968 51.2-51.2-22.968-51.2-51.2-51.2z"></path><path class="path3" d="M898.021 228.688c-12.859-15.181-32.258-23.888-53.221-23.888h-626.846l-5.085-30.506c-6.72-40.315-43.998-71.894-84.869-71.894h-51.2c-14.138 0-25.6 11.462-25.6 25.6s11.462 25.6 25.6 25.6h51.2c15.722 0 31.781 13.603 34.366 29.112l85.566 513.395c6.718 40.314 43.997 71.893 84.867 71.893h512c14.139 0 25.6-11.461 25.6-25.6s-11.461-25.6-25.6-25.6h-512c-15.722 0-31.781-13.603-34.366-29.11l-12.63-75.784 510.206-44.366c39.69-3.451 75.907-36.938 82.458-76.234l34.366-206.194c3.448-20.677-1.952-41.243-14.813-56.424zM862.331 276.694l-34.366 206.194c-2.699 16.186-20.043 32.221-36.39 33.645l-514.214 44.714-50.874-305.246h618.314c5.968 0 10.995 2.054 14.155 5.782 3.157 3.73 4.357 9.024 3.376 14.912z"></path>
    </symbol>
<symbol id="lnr-leaf" viewBox="0 0 1024 1024"><title>leaf</title>
<path class="path1" d="M1017.987 9.117c-4.862-5.779-12.030-9.115-19.582-9.117l-26.114-0.008c-258.027-0.091-461.854-0.163-611.93 35.728-80.627 19.283-142.987 48.411-190.643 89.051-51.387 43.819-86.445 101.243-107.178 175.549-13.771 49.363-20.213 138.478 6.96 227.178 10.043 32.787 25.696 63.682 46.584 92.093-62.246 97.517-116.085 226.014-116.085 378.81 0 14.139 11.462 25.6 25.6 25.6s25.6-11.461 25.6-25.6c0-235.789 139.654-410.651 222.901-493.899 59.741-59.739 127.301-110.166 195.378-145.824 63.373-33.195 123.933-51.477 170.522-51.477 14.139 0 25.6-11.462 25.6-25.6s-11.461-25.6-25.6-25.6c-55.506 0-122.686 19.822-194.278 57.323-72.603 38.030-144.467 91.621-207.822 154.976-26.726 26.726-58.899 62.346-90.824 105.994-12.403-19.496-21.998-40.173-28.619-61.79-25.597-83.555-16.19-164.038-6.597-198.422 73.206-262.397 351.32-263.072 855.925-262.89-60.16 321.93-172.331 530.309-333.613 619.571-149.582 82.786-298.008 37.613-354.877 14.346-12.005-4.912-24.051-10.949-35.802-17.944-12.147-7.227-27.858-3.243-35.091 8.904-7.232 12.149-3.245 27.859 8.902 35.093 13.923 8.288 28.256 15.464 42.602 21.334 31.843 13.027 83.144 29.706 146.704 35.184 14.034 1.21 27.928 1.814 41.672 1.814 75.189 0 145.893-18.077 210.682-53.934 82.37-45.587 153.675-119.736 211.938-220.384 68.315-118.018 119.699-274.534 152.723-465.205 1.29-7.443-0.774-15.074-5.637-20.853z"></path></symbol>
<symbol id="lnr-earth" viewBox="0 0 1024 1024"><title>earth</title><path class="path1" d="M874.038 149.962c-96.704-96.704-225.278-149.962-362.038-149.962s-265.334 53.258-362.038 149.962c-96.704 96.704-149.962 225.278-149.962 362.038s53.258 265.334 149.962 362.038c96.704 96.704 225.278 149.962 362.038 149.962s265.334-53.258 362.038-149.962c96.704-96.704 149.962-225.278 149.962-362.038s-53.258-265.334-149.962-362.038zM941.918 346.178c-9.989-17.987-35.050-26.512-67.853-37.661-35.182-11.957-47.608-48.122-61.994-89.997-12.49-36.35-25.398-73.874-56.069-97.238 83.898 52.584 149.733 131.406 185.915 224.896zM798.235 521.757c3.872 34.683 7.875 70.546-35.163 118.874-11.629 13.056-18.44 31.238-25.653 50.49-16.701 44.582-32.486 86.709-99.642 87.325-1.882-2.262-7.242-10.734-11.981-37.533-4.366-24.698-6.886-56.606-9.555-90.389-4.093-51.834-8.731-110.582-21.544-159.32-16.382-62.325-43.867-99.141-84.026-112.554-17.522-5.853-35.411-8.698-54.693-8.698-14.211 0-27.125 1.522-38.517 2.864-8.875 1.045-17.258 2.034-24.341 2.034 0 0-0.002 0-0.003 0-11.987 0-25.573 0-42.278-38.29-24.021-55.053-6.304-143.267 64.202-189.787 38.661-25.509 65.336-36.392 89.2-36.392 19.026 0 39.581 6.622 68.73 22.146 34.418 18.33 61.379 20.68 81.026 20.68 7.789 0 14.85-0.419 21.682-0.826 5.726-0.339 11.134-0.661 16.139-0.661 11.259 0 20.387 1.467 31.088 8.776 19.723 13.472 29.936 43.195 40.747 74.664 16.392 47.715 34.973 101.798 93.941 121.837 7.925 2.693 21.576 7.333 31.216 11.366-8.328 8.608-22.285 21.067-35.92 33.24-8.808 7.862-18.789 16.773-29.851 26.858-31.965 29.133-28.16 63.221-24.803 93.296zM51.25 508.070c5.52 0.992 11.493 2.141 17.605 3.446 28.776 6.141 42.235 11.686 48.117 14.798-2.706 5.277-8.187 13.056-11.81 18.195-12.669 17.976-28.435 40.349-22.437 64.984 4.046 16.618 0.632 37.032-5.248 55.883-16.994-48.005-26.277-99.624-26.277-153.378 0-1.314 0.038-2.618 0.050-3.93zM512 972.8c-175.379 0-328.173-98.494-406.014-243.062 13.422-25.554 38.314-82.054 26.68-131.547 0.806-4.97 9.248-16.95 14.349-24.186 13.874-19.688 31.141-44.189 18.35-70.152-8.976-18.222-32.957-30.534-80.181-41.17-10.939-2.464-21.594-4.47-30.65-6.019 27.424-228.090 222.107-405.464 457.466-405.464 80.776 0 156.749 20.918 222.83 57.582-16.33-7.134-31.154-8.266-43.014-8.266-6.523 0-12.957 0.382-19.176 0.752-6.085 0.362-12.374 0.734-18.645 0.734-14.542 0-32.682-1.742-56.958-14.67-37.056-19.734-64.808-28.155-92.795-28.155-34.635 0-69.744 13.414-117.397 44.856-41.197 27.181-72.229 68.779-87.381 117.133-14.779 47.166-13.2 95.418 4.448 135.867 20.824 47.728 48.336 69.013 89.203 69.014 0.003 0 0.003 0 0.006 0 10.090 0 19.923-1.158 30.333-2.386 10.482-1.235 21.32-2.512 32.525-2.512 13.869 0 26.094 1.926 38.472 6.061 22.488 7.512 39.082 32.701 50.728 77.008 11.648 44.31 16.098 100.638 20.021 150.334 3.274 41.454 6.366 80.61 13.176 110.126 4.136 17.923 9.494 31.538 16.379 41.621 10.283 15.058 25.032 23.35 41.526 23.35 45.269 0 81.429-14.594 107.47-43.374 21.659-23.934 32.722-53.466 41.613-77.194 5.245-14.003 10.67-28.482 15.941-34.402 58.219-65.373 52.203-119.258 47.813-158.603-3.226-28.888-3.285-39.123 8.408-49.781 10.864-9.904 20.741-18.722 29.454-26.499 18.568-16.576 31.984-28.554 41.397-38.83 6.464-7.058 21.603-23.584 17.395-44.28-0.037-0.184-0.088-0.358-0.126-0.539 17.558 48.701 27.154 101.174 27.154 155.851 0 254.086-206.714 460.8-460.8 460.8z"></path></symbol>
<symbol id="lnr-cog" viewBox="0 0 1024 1024"><title>cog</title><path class="path1" d="M390.71 1008.755c-2.109 0-4.248-0.262-6.378-0.81-45.976-11.803-90.149-30.042-131.291-54.21-11.923-7.003-16.13-22.21-9.501-34.344 8.15-14.925 12.459-31.866 12.459-48.992 0-56.464-45.936-102.4-102.4-102.4-17.125 0-34.066 4.309-48.992 12.459-12.133 6.627-27.339 2.421-34.342-9.501-24.17-41.142-42.408-85.315-54.211-131.293-3.333-12.989 3.92-26.349 16.629-30.629 41.699-14.037 69.717-53.034 69.717-97.037s-28.018-83-69.718-97.040c-12.707-4.278-19.962-17.638-16.627-30.627 11.803-45.976 30.042-90.149 54.211-131.291 7.003-11.923 22.21-16.13 34.344-9.501 14.923 8.15 31.864 12.459 48.99 12.459 56.464 0 102.4-45.936 102.4-102.4 0-17.126-4.309-34.067-12.459-48.99-6.629-12.134-2.422-27.341 9.501-34.344 41.141-24.168 85.314-42.408 131.291-54.211 12.994-3.334 26.349 3.92 30.627 16.627 14.040 41.701 53.037 69.718 97.040 69.718s83-28.018 97.038-69.717c4.28-12.71 17.645-19.965 30.629-16.629 45.976 11.802 90.15 30.042 131.293 54.211 11.922 7.003 16.128 22.208 9.501 34.342-8.152 14.926-12.461 31.867-12.461 48.992 0 56.464 45.936 102.4 102.4 102.4 17.126 0 34.067-4.309 48.992-12.459 12.138-6.629 27.341-2.421 34.344 9.501 24.166 41.141 42.406 85.314 54.21 131.291 3.334 12.989-3.918 26.349-16.627 30.627-41.701 14.040-69.718 53.037-69.718 97.040s28.018 83 69.718 97.038c12.707 4.28 19.962 17.638 16.627 30.629-11.803 45.976-30.042 90.15-54.21 131.291-7.005 11.925-22.208 16.128-34.344 9.502-14.926-8.152-31.867-12.461-48.992-12.461-56.464 0-102.4 45.936-102.4 102.4 0 17.125 4.309 34.066 12.461 48.992 6.627 12.136 2.421 27.341-9.502 34.344-41.141 24.166-85.314 42.406-131.291 54.21-12.992 3.336-26.349-3.918-30.629-16.627-14.038-41.701-53.035-69.718-97.038-69.718s-83 28.018-97.040 69.718c-3.578 10.624-13.502 17.437-24.25 17.437zM512 870.4c57.715 0 109.693 32.138 135.917 82.029 26.637-8.218 52.507-18.875 77.299-31.846-5.541-16.077-8.416-33.075-8.416-50.182 0-84.696 68.904-153.6 153.6-153.6 17.107 0 34.106 2.875 50.181 8.418 12.971-24.792 23.63-50.662 31.846-77.299-49.89-26.226-82.027-78.203-82.027-135.918s32.138-109.691 82.029-135.918c-8.218-26.637-18.875-52.506-31.846-77.299-16.077 5.542-33.074 8.418-50.182 8.418-84.696 0-153.6-68.904-153.6-153.6 0-17.107 2.875-34.106 8.418-50.181-24.792-12.971-50.662-23.63-77.299-31.846-26.226 49.89-78.203 82.027-135.918 82.027s-109.691-32.138-135.917-82.027c-26.637 8.216-52.507 18.874-77.299 31.846 5.542 16.075 8.416 33.072 8.416 50.181 0 84.696-68.904 153.6-153.6 153.6-17.109 0-34.106-2.874-50.181-8.418-12.973 24.794-23.63 50.662-31.846 77.299 49.89 26.227 82.027 78.203 82.027 135.918s-32.138 109.693-82.027 135.917c8.216 26.637 18.875 52.507 31.846 77.299 16.075-5.541 33.074-8.416 50.181-8.416 84.696 0 153.6 68.904 153.6 153.6 0 17.109-2.875 34.106-8.418 50.181 24.794 12.971 50.662 23.63 77.299 31.846 26.227-49.89 78.203-82.027 135.918-82.027z"></path><path class="path2" d="M512 665.6c-84.696 0-153.6-68.904-153.6-153.6s68.904-153.6 153.6-153.6 153.6 68.904 153.6 153.6-68.904 153.6-153.6 153.6zM512 409.6c-56.464 0-102.4 45.936-102.4 102.4s45.936 102.4 102.4 102.4c56.464 0 102.4-45.936 102.4-102.4s-45.936-102.4-102.4-102.4z"></path></symbol>
</svg>
